<svg width="50px" height="50px" viewBox="0 0 50 50" xmlns="http://www.w3.org/2000/svg" xmlns:xlink="http://www.w3.org/1999/xlink">
  <defs/>
  <g>
    <path stroke="none" fill="#000000" fill-opacity="0.00392156862745098" d="M15.15 25.5 Q15.9 27.35 17.45 28.85 20.6 32 25 32 29.45 32 32.6 28.85 34.15 27.35 34.9 25.5 34.15 27.35 32.6 28.85 29.45 32 25 32 20.6 32 17.45 28.85 15.9 27.35 15.15 25.5 M41.5 10 L41.5 33 Q41.5 37.9 36.5 37.9 L24.05 37.9 11.9 45 16 37.9 13.55 37.9 Q8.55 37.9 8.55 33 L8.55 10 Q8.55 5 13.55 5 L36.5 5 Q41.5 5 41.5 10 41.5 5 36.5 5 L13.55 5 Q8.55 5 8.55 10 L8.55 33 Q8.55 37.9 13.55 37.9 L16 37.9 11.9 45 24.05 37.9 36.5 37.9 Q41.5 37.9 41.5 33 L41.5 10 M50 50 L0 50 0 0 50 0 50 50"/>
    <path fill="none" stroke="#ffffff" stroke-width="2" stroke-linecap="round" stroke-linejoin="round" d="M41.5 10 Q41.5 5 36.5 5 L13.55 5 Q8.55 5 8.55 10 L8.55 33 Q8.55 37.9 13.55 37.9 L16 37.9 11.9 45 24.05 37.9 36.5 37.9 Q41.5 37.9 41.5 33 L41.5 10 M34.9 25.5 Q34.15 27.35 32.6 28.85 29.45 32 25 32 20.6 32 17.45 28.85 15.9 27.35 15.15 25.5"/>
  </g>
</svg>