<svg width="50px" height="50px" viewBox="0 0 50 50" xmlns="http://www.w3.org/2000/svg" xmlns:xlink="http://www.w3.org/1999/xlink">
  <defs/>
  <g>
    <path stroke="none" fill="#000000" fill-opacity="0.00392156862745098" d="M12.5 30.65 Q13.45 33 15.4 34.9 19.4 38.85 24.95 38.85 30.6 38.85 34.6 34.9 36.55 33 37.5 30.65 36.55 33 34.6 34.9 30.6 38.85 24.95 38.85 19.4 38.85 15.4 34.9 13.45 33 12.5 30.65 M39.1 10.9 Q33.3 5 25 5 16.7 5 10.85 10.9 5 16.75 5 25 5 33.3 10.85 39.2 16.7 45 25 45 33.3 45 39.1 39.2 45 33.3 45 25 45 16.75 39.1 10.9 45 16.75 45 25 45 33.3 39.1 39.2 33.3 45 25 45 16.7 45 10.85 39.2 5 33.3 5 25 5 16.75 10.85 10.9 16.7 5 25 5 33.3 5 39.1 10.9 M50 50 L0 50 0 0 50 0 50 50"/>
    <path fill="none" stroke="#ffffff" stroke-width="2" stroke-linecap="round" stroke-linejoin="round" d="M39.1 10.9 Q45 16.75 45 25 45 33.3 39.1 39.2 33.3 45 25 45 16.7 45 10.85 39.2 5 33.3 5 25 5 16.75 10.85 10.9 16.7 5 25 5 33.3 5 39.1 10.9 M37.5 30.65 Q36.55 33 34.6 34.9 30.6 38.85 24.95 38.85 19.4 38.85 15.4 34.9 13.45 33 12.5 30.65"/>
  </g>
</svg>