<svg width="40px" height="40px" viewBox="0 0 40 40" xmlns="http://www.w3.org/2000/svg" xmlns:xlink="http://www.w3.org/1999/xlink">
  <defs/>
  <g>
    <path stroke="none" fill="#ff3399" fill-opacity="0" d="M29.1 11 L24.6 11 24.6 7.5 15.15 7.5 15.15 11 10.9 11 15.15 11 15.15 7.5 24.6 7.5 24.6 11 29.1 11 M40.1 40 L0.1 40 0.1 0 40.1 0 40.1 40 M22.2 27.9 L22.2 18.75 22.2 27.9 M17.5 27.9 L17.5 18.75 17.5 27.9 M24.6 11 L15.15 11 24.6 11 M12.75 14.2 L12.75 32.5 26.95 32.5 26.95 14.2 12.75 14.2 26.95 14.2 26.95 32.5 12.75 32.5 12.75 14.2"/>
    <path fill="none" stroke="#000000" stroke-width="2" stroke-linecap="round" stroke-linejoin="round" d="M10.9 11 L15.15 11 15.15 7.5 24.6 7.5 24.6 11 29.1 11 M12.75 14.2 L26.95 14.2 26.95 32.5 12.75 32.5 12.75 14.2 M15.15 11 L24.6 11 M17.5 18.75 L17.5 27.9 M22.2 18.75 L22.2 27.9"/>
  </g>
</svg>