<svg width="80px" height="80px" viewBox="0 0 80 80" xmlns="http://www.w3.org/2000/svg" xmlns:xlink="http://www.w3.org/1999/xlink">
  <defs/>
  <g>
    <path stroke="none" fill="#000000" fill-opacity="0.00392156862745098" d="M15 51.25 Q16.85 55.95 20.8 59.75 28.75 67.7 39.9 67.7 51.2 67.7 59.15 59.75 63.1 55.95 65 51.25 63.1 55.95 59.15 59.75 51.2 67.7 39.9 67.7 28.75 67.7 20.8 59.75 16.85 55.95 15 51.25 M80 80 L0 80 0 0 80 0 80 80"/>
    <path fill="none" stroke="#ffffff" stroke-width="2" stroke-linecap="round" stroke-linejoin="round" d="M65 51.25 Q63.1 55.95 59.15 59.75 51.2 67.7 39.9 67.7 28.75 67.7 20.8 59.75 16.85 55.95 15 51.25"/>
  </g>
</svg>