<svg width="50px" height="50px" viewBox="0 0 50 50" xmlns="http://www.w3.org/2000/svg" xmlns:xlink="http://www.w3.org/1999/xlink">
  <defs/>
  <g>
    <path stroke="none" fill="#000000" fill-opacity="0.00392156862745098" d="M17.6 45 L25 45 25 41.75 Q20.4 41.75 17.1 38.5 13.85 35.2 13.85 30.6 L13.85 21.55 13.85 30.6 Q13.85 35.2 17.1 38.5 20.4 41.75 25 41.75 29.65 41.75 32.9 38.5 36.05 35.35 36.15 30.9 L36.15 21.85 36.15 30.9 Q36.05 35.35 32.9 38.5 29.65 41.75 25 41.75 L25 45 32.45 45 25 45 17.6 45 M26 25.55 L32.45 25.55 32.45 21.85 32.45 18.15 32.45 12.45 32.45 18.15 32.45 21.85 32.45 25.55 32.45 31.25 Q32.4 34.2 30.3 36.3 28.1 38.5 25 38.5 21.95 38.5 19.75 36.3 17.6 34.15 17.6 31.05 L17.6 12.45 Q17.6 9.35 19.75 7.2 L21.3 6 Q22.95 5 25 5 27.1 5 28.75 6 L30.3 7.2 Q32.45 9.35 32.45 12.45 32.45 9.35 30.3 7.2 L28.75 6 Q27.1 5 25 5 22.95 5 21.3 6 L19.75 7.2 Q17.6 9.35 17.6 12.45 L17.6 31.05 Q17.6 34.15 19.75 36.3 21.95 38.5 25 38.5 28.1 38.5 30.3 36.3 32.4 34.2 32.45 31.25 L32.45 25.55 26 25.55 M26 18.15 L32.45 18.15 26 18.15 M25 21.85 L32.45 21.85 25 21.85 M50 0 L50 50 0 50 0 0 50 0"/>
    <path fill="none" stroke="#ffffff" stroke-width="2" stroke-linecap="round" stroke-linejoin="round" d="M32.45 12.45 L32.45 18.15 32.45 21.85 32.45 25.55 32.45 31.25 Q32.4 34.2 30.3 36.3 28.1 38.5 25 38.5 21.95 38.5 19.75 36.3 17.6 34.15 17.6 31.05 L17.6 12.45 Q17.6 9.35 19.75 7.2 L21.3 6 Q22.95 5 25 5 27.1 5 28.75 6 L30.3 7.2 Q32.45 9.35 32.45 12.45 M32.45 21.85 L25 21.85 M32.45 18.15 L26 18.15 M13.85 21.55 L13.85 30.6 Q13.85 35.2 17.1 38.5 20.4 41.75 25 41.75 29.65 41.75 32.9 38.5 36.05 35.35 36.15 30.9 L36.15 21.85 M25 41.75 L25 45 32.45 45 M32.45 25.55 L26 25.55 M25 45 L17.6 45"/>
  </g>
</svg>