<svg width="80px" height="80px" viewBox="0 0 80 80" xmlns="http://www.w3.org/2000/svg" xmlns:xlink="http://www.w3.org/1999/xlink">
  <defs/>
  <g>
    <path stroke="none" fill="#000000" fill-opacity="0.00392156862745098" d="M40.95 55.3 L33.95 55.3 33.95 61.8 33.95 55.3 40.95 55.3 40.95 50.65 Q50.75 50.45 57.7 46.05 65 41.4 65 34.85 65 28.3 57.7 23.65 L55.8 22.55 58.55 18.8 55.8 22.55 57.7 23.65 Q65 28.3 65 34.85 65 41.4 57.7 46.05 50.75 50.45 40.95 50.65 L40.95 55.3 47.95 55.3 47.95 61.8 47.95 55.3 40.95 55.3 M34.2 30.5 Q33.75 30.1 33.1 30.1 32.5 30.1 32.05 30.5 31.6 30.95 31.6 31.6 31.6 32.25 32.05 32.65 32.5 33.1 33.1 33.1 L34.2 32.65 34.65 31.6 Q34.65 30.95 34.2 30.5 34.65 30.95 34.65 31.6 L34.2 32.65 33.1 33.1 Q32.5 33.1 32.05 32.65 31.6 32.25 31.6 31.6 31.6 30.95 32.05 30.5 32.5 30.1 33.1 30.1 33.75 30.1 34.2 30.5 M26.95 21.35 Q24.5 22.3 22.35 23.65 15 28.3 15 34.85 15 41.4 22.35 46.05 29.65 50.65 40 50.65 L40.95 50.65 40 50.65 Q29.65 50.65 22.35 46.05 15 41.4 15 34.85 15 28.3 22.35 23.65 24.5 22.3 26.95 21.35 L23.8 18.25 26.95 21.35 Q29.75 20.2 32.95 19.65 L40 19.05 Q46.45 19.05 51.7 20.8 53.85 21.55 55.8 22.55 53.85 21.55 51.7 20.8 46.45 19.05 40 19.05 L32.95 19.65 Q29.75 20.2 26.95 21.35 M55.1 32.65 Q55.5 32.25 55.5 31.6 55.5 30.95 55.1 30.5 54.65 30.1 54 30.1 53.4 30.1 52.95 30.5 52.5 30.95 52.5 31.6 52.5 32.25 52.95 32.65 53.4 33.1 54 33.1 54.65 33.1 55.1 32.65 54.65 33.1 54 33.1 53.4 33.1 52.95 32.65 52.5 32.25 52.5 31.6 52.5 30.95 52.95 30.5 53.4 30.1 54 30.1 54.65 30.1 55.1 30.5 55.5 30.95 55.5 31.6 55.5 32.25 55.1 32.65 M50.25 22.9 Q46.7 21.95 42.5 21.95 38.8 21.95 35.6 22.7 31.7 23.6 28.55 25.6 22.75 29.25 22.75 34.45 22.75 39.6 28.55 43.25 33.45 46.4 40.15 46.85 L42.5 46.95 Q48.05 46.95 52.5 45.25 54.6 44.45 56.45 43.25 62.25 39.6 62.25 34.45 62.25 29.25 56.45 25.6 53.65 23.8 50.25 22.9 53.65 23.8 56.45 25.6 62.25 29.25 62.25 34.45 62.25 39.6 56.45 43.25 54.6 44.45 52.5 45.25 48.05 46.95 42.5 46.95 L40.15 46.85 Q33.45 46.4 28.55 43.25 22.75 39.6 22.75 34.45 22.75 29.25 28.55 25.6 31.7 23.6 35.6 22.7 38.8 21.95 42.5 21.95 46.7 21.95 50.25 22.9 M80 80 L0 80 0 0 80 0 80 80"/>
    <path fill="none" stroke="#bbbbbb" stroke-width="2" stroke-linecap="round" stroke-linejoin="round" d="M58.55 18.8 L55.8 22.55 57.7 23.65 Q65 28.3 65 34.85 65 41.4 57.7 46.05 50.75 50.45 40.95 50.65 L40.95 55.3 47.95 55.3 47.95 61.8 M50.25 22.9 Q53.65 23.8 56.45 25.6 62.25 29.25 62.25 34.45 62.25 39.6 56.45 43.25 54.6 44.45 52.5 45.25 48.05 46.95 42.5 46.95 L40.15 46.85 Q33.45 46.4 28.55 43.25 22.75 39.6 22.75 34.45 22.75 29.25 28.55 25.6 31.7 23.6 35.6 22.7 38.8 21.95 42.5 21.95 46.7 21.95 50.25 22.9 M23.8 18.25 L26.95 21.35 Q29.75 20.2 32.95 19.65 L40 19.05 Q46.45 19.05 51.7 20.8 53.85 21.55 55.8 22.55 M55.1 32.65 Q54.65 33.1 54 33.1 53.4 33.1 52.95 32.65 52.5 32.25 52.5 31.6 52.5 30.95 52.95 30.5 53.4 30.1 54 30.1 54.65 30.1 55.1 30.5 55.5 30.95 55.5 31.6 55.5 32.25 55.1 32.65 M40.95 50.65 L40 50.65 Q29.65 50.65 22.35 46.05 15 41.4 15 34.85 15 28.3 22.35 23.65 24.5 22.3 26.95 21.35 M34.2 30.5 Q34.65 30.95 34.65 31.6 L34.2 32.65 33.1 33.1 Q32.5 33.1 32.05 32.65 31.6 32.25 31.6 31.6 31.6 30.95 32.05 30.5 32.5 30.1 33.1 30.1 33.75 30.1 34.2 30.5 M33.95 61.8 L33.95 55.3 40.95 55.3"/>
  </g>
</svg>