<svg width="50px" height="50px" viewBox="0 0 50 50" xmlns="http://www.w3.org/2000/svg" xmlns:xlink="http://www.w3.org/1999/xlink">
  <defs/>
  <g>
    <path stroke="none" fill="#000000" fill-opacity="0.00392156862745098" d="M10 25 L17.5 38 32.5 38 40 25 32.5 12.05 17.5 12.05 10 25 17.5 12.05 32.5 12.05 40 25 32.5 38 17.5 38 10 25 M29.55 20.45 Q27.65 18.55 25 18.55 22.35 18.55 20.45 20.45 18.55 22.3 18.55 25 18.55 27.65 20.45 29.55 22.35 31.4 25 31.4 27.65 31.4 29.55 29.55 31.45 27.65 31.45 25 31.45 22.3 29.55 20.45 31.45 22.3 31.45 25 31.45 27.65 29.55 29.55 27.65 31.4 25 31.4 22.35 31.4 20.45 29.55 18.55 27.65 18.55 25 18.55 22.3 20.45 20.45 22.35 18.55 25 18.55 27.65 18.55 29.55 20.45 M50 50 L0 50 0 0 50 0 50 50"/>
    <path fill="none" stroke="#222222" stroke-width="2" stroke-linecap="round" stroke-linejoin="round" d="M29.55 20.45 Q31.45 22.3 31.45 25 31.45 27.65 29.55 29.55 27.65 31.4 25 31.4 22.35 31.4 20.45 29.55 18.55 27.65 18.55 25 18.55 22.3 20.45 20.45 22.35 18.55 25 18.55 27.65 18.55 29.55 20.45 M10 25 L17.5 12.05 32.5 12.05 40 25 32.5 38 17.5 38 10 25"/>
  </g>
</svg>