<svg width="80px" height="80px" viewBox="0 0 80 80" xmlns="http://www.w3.org/2000/svg" xmlns:xlink="http://www.w3.org/1999/xlink">
  <defs/>
  <g>
    <path stroke="none" fill="#000000" fill-opacity="0.00392156862745098" d="M64 40 L52 19.3 28 19.3 16 40 28 60.8 52 60.8 64 40 52 60.8 28 60.8 16 40 28 19.3 52 19.3 64 40 M50.3 40 Q50.3 35.7 47.3 32.7 44.25 29.7 40 29.7 35.75 29.7 32.7 32.7 29.7 35.7 29.7 40 29.7 44.25 32.7 47.3 35.75 50.25 40 50.25 44.25 50.25 47.3 47.3 50.3 44.25 50.3 40 50.3 44.25 47.3 47.3 44.25 50.25 40 50.25 35.75 50.25 32.7 47.3 29.7 44.25 29.7 40 29.7 35.7 32.7 32.7 35.75 29.7 40 29.7 44.25 29.7 47.3 32.7 50.3 35.7 50.3 40 M0 80 L0 0 80 0 80 80 0 80"/>
    <path fill="none" stroke="#ffffff" stroke-width="2" stroke-linecap="round" stroke-linejoin="round" d="M50.3 40 Q50.3 44.25 47.3 47.3 44.25 50.25 40 50.25 35.75 50.25 32.7 47.3 29.7 44.25 29.7 40 29.7 35.7 32.7 32.7 35.75 29.7 40 29.7 44.25 29.7 47.3 32.7 50.3 35.7 50.3 40 M64 40 L52 60.8 28 60.8 16 40 28 19.3 52 19.3 64 40"/>
  </g>
</svg>