<svg width="25px" height="25px" viewBox="0 0 50 50" preserveAspectRatio="xMinYMax meet" xmlns="http://www.w3.org/2000/svg" xmlns:xlink="http://www.w3.org/1999/xlink">
  <defs/>
  <g>
    <path stroke="none" fill="#000000" fill-opacity="0.00392156862745098" d="M15.8 20.4 L7.7 20.4 7.7 29.6 15.8 29.6 26.65 40.45 26.65 9.55 15.8 20.4 26.65 9.55 26.65 40.45 15.8 29.6 7.7 29.6 7.7 20.4 15.8 20.4 M31.7 33.2 Q33.85 32.7 35.55 30.95 38.1 28.4 38.1 25 38.1 21.5 35.55 18.95 33.85 17.3 31.7 16.8 33.85 17.3 35.55 18.95 38.1 21.5 38.1 25 38.1 28.4 35.55 30.95 33.85 32.7 31.7 33.2 M31.7 37.5 Q35.6 36.9 38.55 33.95 42.3 30.2 42.3 25 42.3 19.85 38.55 16 35.6 13.1 31.7 12.5 35.6 13.1 38.55 16 42.3 19.85 42.3 25 42.3 30.2 38.55 33.95 35.6 36.9 31.7 37.5 M31.7 28.7 L32.65 27.95 Q33.9 26.7 33.9 25 33.9 23.25 32.65 22 L31.7 21.3 32.65 22 Q33.9 23.25 33.9 25 33.9 26.7 32.65 27.95 L31.7 28.7 M50 50 L0 50 0 0 50 0 50 50"/>
    <path fill="none" stroke="#ffffff" stroke-width="2" stroke-linecap="round" stroke-linejoin="round" d="M31.7 21.3 L32.65 22 Q33.9 23.25 33.9 25 33.9 26.7 32.65 27.95 L31.7 28.7 M31.7 12.5 Q35.6 13.1 38.55 16 42.3 19.85 42.3 25 42.3 30.2 38.55 33.95 35.6 36.9 31.7 37.5 M31.7 16.8 Q33.85 17.3 35.55 18.95 38.1 21.5 38.1 25 38.1 28.4 35.55 30.95 33.85 32.7 31.7 33.2 M15.8 20.4 L26.65 9.55 26.65 40.45 15.8 29.6 7.7 29.6 7.7 20.4 15.8 20.4"/>
  </g>
</svg>